<svg version="1.0" xmlns="http://www.w3.org/2000/svg" preserveAspectRatio="xMidYMid meet" viewBox="16.88 142.03 458.12 180.97">

<g transform="translate(0.000000,500.000000) scale(0.100000,-0.100000)" fill="#E63946" stroke="none">
<path d="M835 3535 c-122 -65 -479 -271 -535 -309 -58 -39 -76 -60 -106 -123 l-25 -52 3 -388 3 -388 27 -47 c15 -25 45 -59 65 -75 44 -35 160 -103 174 -103 5 0 9 175 9 453 0 339 3 458 13 475 11 21 352 228 474 288 l53 26 62 -32 c35 -18 110 -60 168 -95 58 -34 149 -87 202 -118 l96 -57 7 -62 c9 -80 2 -528 -8 -549 -5 -9 -79 -58 -165 -109 -300 -177 -301 -178 -308 -216 -6 -35 4 -284 12 -284 18 0 627 364 664 398 84 74 85 78 85 517 l0 380 -27 51 c-15 29 -44 65 -63 82 -43 35 -219 140 -465 277 -170 95 -177 98 -250 103 -74 4 -76 4 -165 -43z"/>
<path d="M925 3133 c-79 -40 -283 -162 -289 -172 -8 -12 149 -108 302 -185 l53 -27 160 88 c231 128 220 109 103 178 -131 77 -257 145 -269 144 -5 0 -32 -12 -60 -26z"/>
<path d="M2057 3113 c-10 -9 -8 -856 1 -871 6 -9 37 -12 118 -10 l109 3 3 153 3 152 132 0 c189 1 250 29 304 137 25 52 28 68 28 158 0 88 -3 107 -26 150 -14 29 -42 61 -65 77 -69 48 -134 58 -379 58 -122 0 -225 -3 -228 -7z m454 -222 c33 -40 20 -113 -24 -140 -12 -8 -61 -16 -109 -19 l-88 -5 0 98 0 97 101 -4 c92 -3 103 -5 120 -27z"/>
<path d="M2817 3114 c-4 -4 -7 -143 -7 -309 0 -332 8 -391 59 -454 71 -89 161 -130 306 -138 159 -9 293 33 365 114 67 77 70 95 70 465 l0 328 -114 0 -114 0 -4 -292 c-3 -269 -5 -296 -23 -333 -26 -51 -72 -75 -146 -75 -42 0 -65 6 -90 23 -62 41 -63 51 -69 377 l-5 295 -111 3 c-60 1 -113 -1 -117 -4z"/>
<path d="M3712 2678 l3 -443 110 0 110 0 3 153 3 152 52 0 53 0 69 -141 c39 -78 76 -148 83 -155 16 -17 237 -20 247 -4 3 5 -32 80 -79 167 l-85 157 43 37 c60 53 89 123 90 219 2 140 -44 225 -146 271 -50 22 -66 24 -306 27 l-252 4 2 -444z m443 219 c20 -17 27 -32 27 -60 0 -78 -54 -111 -175 -105 l-62 3 -3 93 -3 92 95 0 c84 0 98 -3 121 -23z"/>
<path d="M4517 3113 c-9 -8 -9 -846 -1 -867 9 -24 219 -24 228 0 8 20 8 838 0 858 -5 13 -25 16 -113 16 -59 0 -111 -3 -114 -7z"/>
<path d="M560 2562 c0 -159 3 -357 7 -440 l6 -151 91 -55 c130 -77 252 -146 259 -146 4 0 7 196 7 434 l0 435 -32 24 c-44 32 -315 187 -328 187 -7 0 -10 -98 -10 -288z"/>
<path d="M1235 2755 c-88 -52 -166 -99 -174 -104 -11 -6 -15 -55 -19 -221 l-5 -214 44 26 c24 13 108 62 187 108 l142 82 0 209 c0 115 -3 209 -7 209 -5 0 -80 -43 -168 -95z"/>
</g>
</svg>