<svg version="1.0" xmlns="http://www.w3.org/2000/svg" preserveAspectRatio="xMidYMid meet" viewBox="241 133.1 286 316.7">

<g transform="translate(0.000000,576.000000) scale(0.100000,-0.100000)" fill="#000000" stroke="none">
<path d="M3690 4407 c-36 -13 -289 -152 -575 -317 -432 -249 -519 -303 -567 -352 -64 -65 -111 -154 -127 -242 -7 -39 -11 -267 -11 -645 0 -645 1 -660 62 -773 45 -85 126 -154 288 -247 78 -44 144 -81 146 -81 2 0 4 358 4 796 0 860 -1 839 52 873 13 8 205 120 428 250 365 212 409 235 450 235 41 0 85 -23 450 -235 223 -130 415 -242 428 -250 51 -32 52 -40 52 -561 0 -440 -2 -486 -18 -518 -15 -31 -65 -63 -402 -257 -212 -122 -393 -232 -403 -245 -16 -21 -17 -48 -15 -299 l3 -276 560 323 c607 350 655 383 713 491 61 114 62 128 62 774 0 378 -4 606 -11 645 -16 88 -63 177 -127 242 -48 49 -135 103 -567 352 -286 165 -539 304 -575 317 -47 16 -88 22 -150 22 -62 0 -103 -6 -150 -22z"/>
<path d="M3502 3522 c-166 -97 -301 -180 -300 -184 7 -18 612 -358 638 -358 26 0 631 340 638 358 1 4 -134 86 -300 182 -216 125 -313 175 -338 177 -29 1 -86 -28 -338 -175z"/>
<path d="M3100 2416 c0 -594 3 -766 13 -779 6 -9 152 -97 322 -195 l310 -180 3 752 c1 510 -1 759 -8 777 -7 15 -36 40 -73 61 -34 20 -176 101 -314 181 l-253 146 0 -763z"/>
<path d="M4263 2997 c-213 -123 -315 -188 -322 -204 -12 -26 -16 -733 -5 -733 12 0 605 345 625 363 18 17 19 35 19 387 0 204 -1 370 -2 369 -2 0 -143 -82 -315 -182z"/>
</g>
</svg>