<svg version="1.0" xmlns="http://www.w3.org/2000/svg" preserveAspectRatio="xMidYMid meet" viewBox="13.53 152.03 466.47 199.4">  <g transform="translate(0.000000,500.000000) scale(0.100000,-0.100000)" fill="crimson" stroke="none"> <path d="M1027 3469 c-398 -42 -740 -328 -851 -712 -155 -535 146 -1080 689 -1243 82 -25 105 -27 260 -28 148 -1 181 2 255 22 171 47 335 140 454 259 61 61 156 180 156 197 0 3 -115 6 -255 6 l-255 0 0 -33 c0 -46 -53 -149 -96 -186 -113 -100 -274 -107 -394 -17 -52 37 -104 126 -115 193 l-7 42 -96 3 -97 3 -3 251 -2 250 151 202 151 202 149 0 149 0 0 200 0 200 227 0 c145 0 224 3 217 10 -30 30 -183 105 -275 135 -90 29 -273 59 -323 54 -6 -1 -46 -5 -89 -10z"/> <path d="M1490 2635 l0 -475 230 0 230 0 0 90 0 89 38 6 c152 26 247 97 310 232 23 49 27 71 27 148 0 80 -4 97 -31 155 -57 120 -162 199 -294 220 -36 5 -165 10 -287 10 l-223 0 0 -475z"/> <path d="M2390 2832 c0 -306 6 -353 60 -447 180 -314 641 -315 819 -1 54 94 61 146 61 450 l0 276 -470 0 -470 0 0 -278z"/> <path d="M3410 2635 l0 -475 416 0 415 0 -47 88 c-26 48 -57 105 -70 128 l-23 41 30 29 c226 217 104 603 -207 654 -32 6 -161 10 -286 10 l-228 0 0 -475z"/> <path d="M4310 2635 l0 -475 245 0 245 0 0 475 0 475 -245 0 -245 0 0 -475z"/> <path d="M939 2613 c-46 -59 -88 -113 -92 -120 -7 -11 32 -13 208 -13 l215 0 0 120 0 120 -124 0 -123 0 -84 -107z"/> <path d="M1111 2102 c-94 -48 -108 -166 -27 -241 38 -36 122 -41 171 -11 46 28 65 66 65 129 0 106 -113 173 -209 123z"/> </g> </svg>