<?xml version="1.0" standalone="no"?>
<!DOCTYPE svg PUBLIC "-//W3C//DTD SVG 20010904//EN"
 "http://www.w3.org/TR/2001/REC-SVG-20010904/DTD/svg10.dtd">
<svg version="1.0" xmlns="http://www.w3.org/2000/svg"
 width="500.000000pt" height="500.000000pt" viewBox="0 0 500.000000 500.000000"
 preserveAspectRatio="xMidYMid meet" >

<g transform="translate(0.000000,500.000000) scale(0.100000,-0.100000)"
fill="crimson" stroke="none">
<path d="M2315 4990 c-343 -31 -632 -111 -927 -257 -486 -241 -886 -642 -1124
-1128 -177 -362 -256 -699 -257 -1095 0 -267 26 -461 98 -710 232 -807 878
-1455 1690 -1694 239 -70 448 -99 710 -100 252 0 462 30 700 100 560 165 1047
524 1375 1015 l83 124 -638 3 c-454 1 -641 -1 -645 -9 -4 -6 -10 -41 -13 -77
-7 -88 -47 -211 -94 -292 -51 -88 -181 -217 -270 -269 -115 -68 -206 -93 -354
-99 -153 -5 -248 15 -379 80 -67 34 -104 61 -176 133 -99 98 -148 174 -189
295 -19 55 -45 194 -45 237 0 2 -112 3 -250 3 l-250 0 0 625 0 625 378 505
377 504 378 1 377 0 0 500 0 500 553 2 552 3 -109 73 c-209 140 -496 266 -754
332 -243 61 -573 90 -797 70z"/>
<path d="M2003 2819 l-242 -309 554 0 555 0 0 310 0 310 -312 -1 -313 0 -242
-310z"/>
<path d="M2513 1606 c-101 -33 -178 -100 -230 -198 -25 -48 -28 -62 -28 -158
0 -95 3 -110 28 -160 37 -72 105 -141 176 -176 51 -26 65 -29 161 -29 100 0
108 1 168 34 75 41 135 103 170 179 23 49 27 70 27 152 0 87 -3 101 -32 161
-63 128 -176 200 -318 206 -49 2 -96 -3 -122 -11z"/>
</g>
</svg>
